<svg width="24" height="25" viewBox="0 0 24 25" fill="none" xmlns="http://www.w3.org/2000/svg">
<path d="M7.43496 24.3125C5.50813 24.3125 3.87704 23.6448 2.54168 22.3095C1.20633 20.9741 0.538651 19.343 0.538651 17.4162C0.538651 16.6072 0.676609 15.8211 0.952525 15.0577C1.22844 14.2944 1.62375 13.6025 2.13846 12.9822L6.99324 7.14356L3.89674 0.9375H20.5556L17.4591 7.14356L22.3138 12.9822C22.8285 13.6025 23.2239 14.2944 23.4998 15.0577C23.7757 15.8211 23.9137 16.6072 23.9137 17.4162C23.9137 19.343 23.2424 20.9741 21.9 22.3095C20.5577 23.6448 18.9302 24.3125 17.0173 24.3125H7.43496ZM12.2262 17.7678C11.5405 17.7678 10.9548 17.525 10.4692 17.0394C9.98341 16.5538 9.74049 15.9682 9.74049 15.2825C9.74049 14.5966 9.98341 14.0109 10.4692 13.5253C10.9548 13.0397 11.5405 12.7969 12.2262 12.7969C12.9118 12.7969 13.4975 13.0397 13.9831 13.5253C14.4689 14.0109 14.7118 14.5966 14.7118 15.2825C14.7118 15.9682 14.4689 16.5538 13.9831 17.0394C13.4975 17.525 12.9118 17.7678 12.2262 17.7678ZM8.88112 6.26562H15.5842L17.2105 3H7.24178L8.88112 6.26562ZM7.43496 22.25H17.0173C18.3678 22.25 19.511 21.7798 20.4469 20.8393C21.3831 19.8988 21.8512 18.7577 21.8512 17.4162C21.8512 16.8485 21.7538 16.2982 21.559 15.7652C21.3642 15.2319 21.0861 14.7502 20.7247 14.32L15.7376 8.32812H8.74912L3.74068 14.2987C3.37929 14.7289 3.09902 15.2141 2.89987 15.7545C2.70072 16.2946 2.60115 16.8485 2.60115 17.4162C2.60115 18.7577 3.0714 19.8988 4.0119 20.8393C4.9524 21.7798 6.09342 22.25 7.43496 22.25Z" fill="white"/>
</svg>
