<svg width="25" height="27" viewBox="0 0 25 27" fill="none" xmlns="http://www.w3.org/2000/svg">
<path d="M11.5522 9.22218V8.10877C10.6498 7.88144 9.90855 7.40248 9.32853 6.6719C8.74851 5.94109 8.4585 5.09179 8.4585 4.12402C8.4585 2.98002 8.86 2.00652 9.663 1.20352C10.466 0.400523 11.4395 -0.000976562 12.5835 -0.000976562C13.7275 -0.000976562 14.701 0.400523 15.504 1.20352C16.307 2.00652 16.7085 2.98002 16.7085 4.12402C16.7085 5.09179 16.4185 5.94109 15.8385 6.6719C15.2584 7.40248 14.5172 7.88144 13.6147 8.10877V9.22218L24.271 15.3619V20.3861L13.8262 26.4069C13.435 26.6327 13.0207 26.7455 12.5835 26.7455C12.1462 26.7455 11.732 26.6327 11.3408 26.4069L0.895996 20.3861V15.3619L11.5522 9.22218ZM2.9585 16.9301V19.1803L12.5835 24.749L22.2085 19.1803V16.9301L12.5835 22.4645L2.9585 16.9301ZM12.5835 6.18652C13.1564 6.18652 13.6434 5.986 14.0444 5.58496C14.4455 5.18392 14.646 4.69694 14.646 4.12402C14.646 3.55111 14.4455 3.06413 14.0444 2.66309C13.6434 2.26204 13.1564 2.06152 12.5835 2.06152C12.0106 2.06152 11.5236 2.26204 11.1226 2.66309C10.7215 3.06413 10.521 3.55111 10.521 4.12402C10.521 4.69694 10.7215 5.18392 11.1226 5.58496C11.5236 5.986 12.0106 6.18652 12.5835 6.18652ZM4.69306 15.5472L12.5835 20.0953L20.4609 15.5472L13.6147 11.5913V16.1553H11.5522V11.5913L4.69306 15.5472Z" fill="white"/>
</svg>
