<svg width="24" height="22" viewBox="0 0 24 22" fill="none" xmlns="http://www.w3.org/2000/svg">
<path d="M2.61609 18.5V19.75V2.25V18.5ZM21.9911 6.03625H20.1161V2.25H2.61609V19.75H20.1161V15.9637H21.9911V21.625H0.741089V0.375H21.9911V6.03625ZM10.7411 16.625V5.375H23.2411V16.625H10.7411ZM16.3661 12.875C16.8869 12.875 17.3296 12.6927 17.6942 12.3281C18.0588 11.9635 18.2411 11.5208 18.2411 11C18.2411 10.4792 18.0588 10.0365 17.6942 9.67188C17.3296 9.30729 16.8869 9.125 16.3661 9.125C15.8453 9.125 15.4025 9.30729 15.038 9.67188C14.6734 10.0365 14.4911 10.4792 14.4911 11C14.4911 11.5208 14.6734 11.9635 15.038 12.3281C15.4025 12.6927 15.8453 12.875 16.3661 12.875ZM21.3661 14.75V7.25H12.6161V14.75H21.3661Z" fill="white"/>
</svg>
