<svg width="32" height="32" viewBox="0 0 32 32" fill="none" xmlns="http://www.w3.org/2000/svg">
    <rect width="32" height="32" rx="8" fill="#F7931A"/>
    <path d="M23.0111 14.1185C23.2991 11.982 21.6758 10.8666 19.4503 10.1126L20.1416 7.22206L18.3821 6.79791L17.7118 9.6256C17.2458 9.51563 16.7745 9.40567 16.3085 9.31141L16.9787 6.48372L15.1983 6.05957L14.5071 8.95009C14.1301 8.86108 13.7478 8.793 13.3708 8.70398L10.9463 8.12274L10.5012 9.99215C10.5012 9.99215 11.8156 10.2802 11.7685 10.3063C12.4806 10.4844 12.6168 10.9504 12.5906 11.3065L11.8104 14.6002C11.8575 14.6212 11.9203 14.6212 11.9884 14.6683C11.9203 14.6474 11.8784 14.6474 11.8104 14.6264L10.7421 19.2345C10.6531 19.4544 10.4279 19.7686 9.94094 19.6587C9.96189 19.6796 8.64754 19.3445 8.64754 19.3445L7.81494 21.371L10.1085 21.9051C10.5327 22.0151 10.9568 22.1041 11.3548 22.2193L10.6636 25.136L12.423 25.5601L13.1142 22.6696C13.6065 22.8005 14.0725 22.9157 14.5176 23.0257L13.8264 25.8953L15.5858 26.3194L16.2771 23.4027C19.2828 23.9368 21.5292 23.6907 22.4404 20.9521C23.1735 18.7685 22.3723 17.5222 20.7699 16.7001C21.9429 16.433 22.7912 15.6737 23.0111 14.1185ZM19.0524 19.7896C18.5392 21.9732 14.8475 20.8369 13.6641 20.5489L14.5752 16.6739C15.7796 16.9671 19.5865 17.5012 19.0524 19.7896ZM19.5394 14.1185C19.0733 16.0979 15.9995 15.1448 14.9994 14.8987L15.8477 11.385C16.8269 11.6259 20.0316 12.0501 19.5394 14.1185Z" fill="white"/>
</svg>
