<svg width="32" height="32" viewBox="0 0 32 32" fill="none" xmlns="http://www.w3.org/2000/svg">
    <rect width="32" height="32" rx="8" fill="#F0B90B"/>
    <path d="M21.4691 15.1662L21.4581 12.811H21.4667L19.4661 11.6333L16.0381 13.6546L12.6307 11.6333L10.6314 12.811V15.1662L14.0595 17.1777V21.2104L16.0503 22.3771L18.041 21.2104V17.1777L21.4691 15.1662Z" fill="white"/>
    <path d="M16.0393 5.6001L10.6302 8.78922L12.621 9.96685L16.0393 7.94561L19.4674 9.96685L21.4581 8.78922L16.0393 5.6001Z" fill="white"/>
    <path d="M9.20193 20.023L9.19096 16L7.20141 14.8236V21.2116L12.6202 24.3897V22.0345L9.20193 20.023Z" fill="white"/>
    <path d="M9.19096 14.3213V11.977L11.1915 10.7994L9.19096 9.62178L7.2002 10.7994V13.1437L9.19096 14.3213Z" fill="white"/>
    <path d="M16.0385 9.62178L14.0478 10.7994L16.0385 11.977L18.0391 10.7994L16.0385 9.62178Z" fill="white"/>
    <path d="M12.621 18.0116L10.6302 16.834V19.1892L12.621 20.3559V18.0116Z" fill="white"/>
    <path d="M16.0393 24.0558L14.0485 22.8782V25.2225L16.0393 26.4001L18.0398 25.2225V22.8782L16.0393 24.0558Z" fill="white"/>
    <path d="M22.8857 9.62186L20.8949 10.7995L22.8857 11.9771V14.3214L24.8862 13.1438V10.7995L22.8857 9.62186Z" fill="white"/>
    <path d="M24.8874 14.8225L22.8966 16.0001L22.8857 20.0231L19.4686 22.0333V24.3886L24.8874 21.2105V14.8225Z" fill="white"/>
    <path d="M21.4588 19.1891L19.468 20.3557V18.0114L21.4588 16.8338V19.1891Z" fill="white"/>
</svg>
