<svg width="32" height="32" viewBox="0 0 32 32" fill="none" xmlns="http://www.w3.org/2000/svg">
    <rect width="32" height="32" rx="8" fill="#ECEFF0"/>
    <path d="M16.0116 19.9599C15.9494 19.981 15.914 19.9269 15.8717 19.902C13.7996 18.6791 11.7298 17.4553 9.66226 16.2307C9.64224 16.2206 9.62145 16.2121 9.6001 16.2052V16.1779L9.63678 16.1567C9.68885 16.1431 9.74012 16.1265 9.79032 16.107L14.6732 13.8853C15.1083 13.687 15.5435 13.4918 15.9786 13.2954H16.0097C16.0097 13.3575 16.0097 13.4129 16.0097 13.4719C16.0114 15.6348 16.012 17.7974 16.0116 19.9599Z" fill="#343535"/>
    <path d="M16.0147 13.2969H15.9836C15.9836 13.2347 15.9898 13.1726 15.9898 13.1073C15.9898 10.678 15.9898 8.24845 15.9898 5.81872C15.9826 5.75631 15.9869 5.69313 16.0022 5.63223H16.0153C16.2708 6.00956 16.4933 6.4074 16.7283 6.79716C18.5899 9.88499 20.4504 12.9724 22.3099 16.0594C22.3279 16.0899 22.3422 16.1216 22.3584 16.1551C22.3057 16.1439 22.254 16.1287 22.2036 16.1098C21.8623 15.9556 21.5198 15.7989 21.1816 15.6417C20.652 15.3992 20.1222 15.1572 19.5921 14.9156L17.0385 13.7588C16.6984 13.6021 16.3565 13.4498 16.0147 13.2969Z" fill="#2F3030"/>
    <path d="M16.0043 5.62902C15.9889 5.68992 15.9847 5.7531 15.9918 5.81551C15.9918 8.24482 15.9918 10.6743 15.9918 13.1041C15.9918 13.1662 15.9881 13.2284 15.9856 13.2937C15.5505 13.4901 15.1153 13.6853 14.6802 13.8836L9.79732 16.1053C9.74711 16.1248 9.69585 16.1414 9.64377 16.155C9.78488 15.8616 9.96827 15.5956 10.1355 15.3146C12.0729 12.0941 14.0117 8.87433 15.9521 5.65513C15.9649 5.63729 15.9788 5.62027 15.9937 5.60415L16.0043 5.62902Z" fill="#828384"/>
    <path d="M16.0147 13.2969C16.3565 13.4498 16.6985 13.6022 17.0398 13.7563L19.5935 14.9132C20.1239 15.1544 20.6538 15.3964 21.183 15.6392C21.5236 15.7953 21.8668 15.9532 22.2049 16.1073C22.2553 16.1263 22.3071 16.1415 22.3597 16.1527C22.4219 16.2304 22.3299 16.2335 22.3019 16.2503C21.7717 16.5673 21.2389 16.88 20.7074 17.1945C19.182 18.0971 17.6569 18.9995 16.1322 19.9017C16.0937 19.9241 16.052 19.9406 16.0116 19.9599C16.0116 17.7978 16.0116 15.6359 16.0116 13.4735C16.0123 13.4144 16.014 13.3559 16.0147 13.2969Z" fill="#131313"/>
    <path d="M15.9897 21.188L19.9837 18.8339C20.7462 18.3838 21.5083 17.9333 22.27 17.4825L22.339 17.4445C22.3459 17.5067 22.303 17.5397 22.2769 17.5757C20.5363 20.0295 18.7958 22.4824 17.0552 24.9345C16.7257 25.3995 16.3969 25.867 16.0643 26.3282C16.0469 26.3525 16.0202 26.4662 15.9667 26.3456C16.009 26.3096 15.9903 26.2611 15.9903 26.2213C15.9908 24.5429 15.9906 22.8651 15.9897 21.188Z" fill="#2F3030"/>
    <path d="M15.9894 21.1883C15.9894 22.8654 15.9894 24.5422 15.9894 26.2185C15.9894 26.2614 16.008 26.3099 15.9658 26.3428C15.8769 26.2894 15.8383 26.1936 15.7793 26.1147C13.7611 23.2718 11.7439 20.4285 9.72773 17.5847C9.70224 17.5487 9.67862 17.5101 9.65251 17.4703C9.70473 17.4399 9.7327 17.4815 9.76316 17.4996C11.8042 18.7047 13.8448 19.9109 15.8849 21.1181C15.9229 21.1417 15.9552 21.1659 15.9894 21.1883Z" fill="#828384"/>
    <path d="M16.0047 5.62898L15.9898 5.60598C16.0172 5.58858 16.0134 5.61406 16.0178 5.62712L16.0047 5.62898Z" fill="#393939"/>
</svg>
