<svg width="32" height="32" viewBox="0 0 32 32" fill="none" xmlns="http://www.w3.org/2000/svg">
    <rect width="32" height="32" rx="8" fill="#000008"/>
    <path d="M25.8965 20.9389L22.5949 24.3884C22.5232 24.4633 22.4363 24.523 22.3398 24.5639C22.2433 24.6047 22.1392 24.6258 22.034 24.6257H6.3828C6.30812 24.6257 6.23507 24.6044 6.17262 24.5645C6.11017 24.5246 6.06104 24.4679 6.03128 24.4011C6.00151 24.3344 5.9924 24.2607 6.00506 24.189C6.01773 24.1173 6.05162 24.0507 6.10257 23.9975L9.40666 20.5481C9.47824 20.4733 9.5648 20.4137 9.66098 20.3729C9.75718 20.3321 9.86094 20.3109 9.96587 20.3107H25.6162C25.6909 20.3107 25.7639 20.332 25.8264 20.3719C25.8888 20.4118 25.9379 20.4686 25.9678 20.5353C25.9975 20.602 26.0066 20.6758 25.994 20.7475C25.9813 20.8192 25.9474 20.8857 25.8965 20.9389ZM22.5949 13.9927C22.5232 13.9177 22.4363 13.858 22.3398 13.8172C22.2433 13.7763 22.1392 13.7553 22.034 13.7554H6.3828C6.30812 13.7554 6.23507 13.7766 6.17262 13.8165C6.11017 13.8564 6.06104 13.9132 6.03128 13.9799C6.00151 14.0466 5.9924 14.1204 6.00506 14.1921C6.01773 14.2638 6.05162 14.3303 6.10257 14.3835L9.40666 17.833C9.47824 17.9077 9.5648 17.9673 9.66098 18.0082C9.75718 18.049 9.86094 18.0701 9.96587 18.0703H25.6162C25.6909 18.0703 25.7639 18.049 25.8264 18.0091C25.8888 17.9692 25.9379 17.9124 25.9678 17.8457C25.9975 17.779 26.0066 17.7053 25.994 17.6336C25.9813 17.5619 25.9474 17.4953 25.8965 17.4421L22.5949 13.9927ZM6.3828 11.5149H22.034C22.1392 11.5149 22.2433 11.4939 22.3398 11.4531C22.4363 11.4122 22.5232 11.3525 22.5949 11.2776L25.8965 7.82811C25.9474 7.77492 25.9813 7.70838 25.994 7.63668C26.0066 7.56498 25.9975 7.49124 25.9678 7.42452C25.9379 7.3578 25.8888 7.301 25.8264 7.2611C25.7639 7.22121 25.6909 7.19995 25.6162 7.19995H9.96587C9.86094 7.20013 9.75718 7.22128 9.66098 7.2621C9.5648 7.30292 9.47824 7.36254 9.40666 7.43727L6.10342 10.8867C6.05252 10.9399 6.01864 11.0063 6.00595 11.078C5.99326 11.1496 6.0023 11.2233 6.03196 11.29C6.06162 11.3566 6.11062 11.4134 6.17294 11.4534C6.23526 11.4934 6.3082 11.5147 6.3828 11.5149Z" fill="url(#paint0_linear_33_2400)"/>
    <defs>
        <linearGradient id="paint0_linear_33_2400" x1="7.68775" y1="25.041" x2="23.6219" y2="6.60268" gradientUnits="userSpaceOnUse">
            <stop offset="0.08" stop-color="#9945FF"/>
            <stop offset="0.3" stop-color="#8752F3"/>
            <stop offset="0.5" stop-color="#5497D5"/>
            <stop offset="0.6" stop-color="#43B4CA"/>
            <stop offset="0.72" stop-color="#28E0B9"/>
            <stop offset="0.97" stop-color="#19FB9B"/>
        </linearGradient>
    </defs>
</svg>
