<svg width="32" height="32" viewBox="0 0 32 32" fill="none" xmlns="http://www.w3.org/2000/svg">
    <path d="M0 4C0 1.79086 1.79086 0 4 0H28C30.2091 0 32 1.79086 32 4V28C32 30.2091 30.2091 32 28 32H4C1.79086 32 0 30.2091 0 28V4Z" fill="#0088CC"/>
    <path fill-rule="evenodd" clip-rule="evenodd" d="M10.9385 9.50024H21.4587C21.8106 9.50024 22.1585 9.50024 22.6276 9.73481C23.0967 9.96938 23.3274 10.3212 23.562 10.5519C23.562 10.5519 23.562 10.5519 23.562 10.6692C23.7965 11.021 23.9138 11.369 23.9138 11.8381C23.9138 12.19 23.7965 12.6552 23.562 13.007L16.9003 24.3484C16.7831 24.583 16.4312 24.7002 16.2006 24.7002C15.966 24.7002 15.6181 24.583 15.5008 24.3484L8.95253 13.007C8.83524 12.7725 8.60068 12.4245 8.4834 11.8381C8.4834 11.369 8.60068 10.9037 8.71796 10.5519C8.95253 10.2 9.30046 9.8521 9.65231 9.61753C10.2387 9.50024 10.7039 9.50024 10.9385 9.50024ZM15.3796 11.1383H10.9385C10.7039 11.1383 10.5867 11.1383 10.4694 11.1383C10.3521 11.1383 10.2348 11.2556 10.2348 11.3729C10.1175 11.4902 10.1175 11.6074 10.1175 11.7247C10.1175 11.842 10.1175 11.842 10.3521 12.1939L15.3796 20.9628V11.1383ZM17.0176 11.1383V20.9589L22.1624 12.19C22.1624 12.0727 22.2797 11.9554 22.2797 11.7208C22.2797 11.6035 22.2797 11.4863 22.1624 11.369C22.0451 11.2517 22.0451 11.2517 22.0451 11.2517C22.0451 11.2517 22.0451 11.2517 21.9278 11.2517C21.8106 11.2517 21.6933 11.1344 21.4587 11.1344H17.0176V11.1383Z" fill="white"/>
</svg>
