<svg width="32" height="32" viewBox="0 0 32 32" fill="none" xmlns="http://www.w3.org/2000/svg">
    <rect width="32" height="32" rx="8" fill="#FF060A"/>
    <path d="M24.0407 13.3022C23.2157 12.5404 22.0745 11.3772 21.145 10.5522L21.09 10.5137C20.9985 10.4402 20.8953 10.3826 20.7848 10.3432C18.5436 9.92521 8.11301 7.97548 7.90951 8.00023C7.85249 8.00822 7.79798 8.02889 7.75001 8.06073L7.69776 8.10198C7.63343 8.16732 7.58456 8.24626 7.55477 8.33298L7.54102 8.36873V8.56398V8.59423C8.71524 11.8639 13.3517 22.575 14.2646 25.0885C14.3196 25.259 14.4241 25.5835 14.6194 25.6H14.6634C14.7679 25.6 15.2134 25.0115 15.2134 25.0115C15.2134 25.0115 23.1772 15.3536 23.983 14.3252C24.0873 14.1985 24.1793 14.0622 24.258 13.9182C24.278 13.8055 24.2686 13.6895 24.2305 13.5815C24.1924 13.4736 24.127 13.3773 24.0407 13.3022ZM17.2566 14.4269L20.6555 11.6082L22.6492 13.4452L17.2566 14.4269ZM15.9366 14.2427L10.0847 9.44671L19.5528 11.1929L15.9366 14.2427ZM16.4646 15.4994L22.454 14.5341L15.6066 22.784L16.4646 15.4994ZM9.28998 9.92521L15.4471 15.1501L14.5561 22.7895L9.28998 9.92521Z" fill="white"/>
</svg>
