<svg width="32" height="32" viewBox="0 0 32 32" fill="none" xmlns="http://www.w3.org/2000/svg">
    <path d="M0 8C0 3.58172 3.58172 0 8 0H24C28.4183 0 32 3.58172 32 8V24C32 28.4183 28.4183 32 24 32H8C3.58172 32 0 28.4183 0 24V8Z" fill="#26A17B"/>
    <path fill-rule="evenodd" clip-rule="evenodd" d="M23.7856 10.8361V8H8.16689V10.8361H14.0297V12.8025C9.91208 13.0126 6.82286 13.8757 6.79997 14.9101L6.7998 17.0667C6.82273 18.1011 9.91208 18.9642 14.0297 19.1743V24H17.9228V19.1743C22.0404 18.9642 25.1296 18.1011 25.1526 17.0667L25.1527 14.9101C25.1298 13.8757 22.0404 13.0126 17.9228 12.8025V10.8361H23.7856ZM24.9423 15.9884C24.0434 16.963 20.3705 17.6928 15.9763 17.6928C11.582 17.6928 7.9091 16.963 7.01023 15.9884C7.77246 15.1619 10.5295 14.5115 14.0297 14.3329V16.3917C14.6571 16.4237 15.3083 16.4406 15.9763 16.4406C16.6441 16.4406 17.2954 16.4237 17.9228 16.3917V14.3329C21.423 14.5115 24.18 15.1619 24.9423 15.9884Z" fill="white"/>
</svg>
