<svg width="24" height="24" viewBox="0 0 24 24" fill="none" xmlns="http://www.w3.org/2000/svg">
    <mask id="mask0_33_2389" style="mask-type:alpha" maskUnits="userSpaceOnUse" x="0" y="0" width="24" height="24">
        <rect width="24" height="24" fill="#D9D9D9"/>
    </mask>
    <g mask="url(#mask0_33_2389)">
        <path fill-rule="evenodd" clip-rule="evenodd" d="M12 20C14.2333 20 16.125 19.225 17.675 17.675C19.225 16.125 20 14.2333 20 12C20 9.76667 19.225 7.875 17.675 6.325C16.125 4.775 14.2333 4 12 4C9.76667 4 7.875 4.775 6.325 6.325C4.775 7.875 4 9.76667 4 12C4 14.2333 4.775 16.125 6.325 17.675C7.875 19.225 9.76667 20 12 20ZM12 13.0538L8.4 16.6538L7.34625 15.6L10.9462 12L7.34625 8.4L8.4 7.34625L12 10.9462L15.6 7.34625L16.6538 8.4L13.0538 12L16.6538 15.6L15.6 16.6538L12 13.0538Z" fill="white"/>
        <path fill-rule="evenodd" clip-rule="evenodd" d="M8.2965 20.752C9.45267 21.2507 10.6877 21.5 12.0017 21.5C13.3156 21.5 14.5503 21.2506 15.706 20.7518C16.8617 20.2528 17.8669 19.5757 18.7218 18.7205C19.5766 17.8653 20.2533 16.8597 20.752 15.7035C21.2507 14.5473 21.5 13.3123 21.5 11.9983C21.5 10.6844 21.2506 9.44967 20.7518 8.294C20.2528 7.13833 19.5757 6.13308 18.7205 5.27825C17.8653 4.42342 16.8597 3.74667 15.7035 3.248C14.5473 2.74933 13.3123 2.5 11.9983 2.5C10.6844 2.5 9.44967 2.74942 8.294 3.24825C7.13833 3.74725 6.13308 4.42433 5.27825 5.2795C4.42342 6.13467 3.74667 7.14033 3.248 8.2965C2.74933 9.45267 2.5 10.6877 2.5 12.0017C2.5 13.3156 2.74942 14.5503 3.24825 15.706C3.74725 16.8617 4.42433 17.8669 5.2795 18.7218C6.13467 19.5766 7.14033 20.2533 8.2965 20.752ZM17.675 17.675C16.125 19.225 14.2333 20 12 20C9.76667 20 7.875 19.225 6.325 17.675C4.775 16.125 4 14.2333 4 12C4 9.76667 4.775 7.875 6.325 6.325C7.875 4.775 9.76667 4 12 4C14.2333 4 16.125 4.775 17.675 6.325C19.225 7.875 20 9.76667 20 12C20 14.2333 19.225 16.125 17.675 17.675Z" fill="white"/>
    </g>
</svg>
