<svg width="150" height="65" viewBox="0 0 150 65" fill="none" xmlns="http://www.w3.org/2000/svg">
<mask id="path-1-inside-1_73_4072" fill="white">
<path d="M40.8405 141.485C4.32036 122.349 -9.78546 77.0842 9.26383 40.5188C28.3131 3.95333 73.4181 -10.2855 109.938 8.85064C146.458 27.9868 160.564 73.2514 141.515 109.817C122.466 146.382 77.3605 160.621 40.8405 141.485Z"/>
</mask>
<path d="M36.521 139.222C-0.0594976 120.054 -14.2458 74.8241 4.835 38.1981C23.9158 1.57218 69.0382 -12.5805 105.619 6.58731L109.938 8.85065C75.8641 -9.00381 32.799 6.16446 13.7497 42.7299L13.6356 42.949C-5.41369 79.5144 6.76633 123.63 40.8405 141.485L36.521 139.222ZM114.258 11.114C150.838 30.2818 165.024 75.5115 145.944 112.137C126.863 148.763 81.7404 162.916 45.1599 143.748L40.8404 141.485C74.9146 159.339 117.98 144.171 137.029 107.606L137.143 107.387C156.192 70.8212 144.012 26.7051 109.938 8.85064L114.258 11.114ZM106.966 176.134L-25.285 106.836L106.966 176.134ZM43.8127 -25.7984L176.064 43.4997L43.8127 -25.7984Z" fill="white" mask="url(#path-1-inside-1_73_4072)"/>
</svg>
