<svg width="20" height="21" viewBox="0 0 20 21" fill="none" xmlns="http://www.w3.org/2000/svg">
    <rect y="0.5" width="20" height="20" rx="4" fill="#FF060A"/>
    <path d="M15.0252 8.81385C14.5096 8.33776 13.7963 7.61074 13.2154 7.09512L13.181 7.07106C13.1238 7.02513 13.0593 6.98912 12.9902 6.9645C11.5895 6.70326 5.07038 5.48468 4.9432 5.50015C4.90756 5.50514 4.8735 5.51806 4.84351 5.53796L4.81086 5.56374C4.77065 5.60458 4.74011 5.65391 4.72148 5.70811L4.71289 5.73046V5.85249V5.87139C5.44678 7.91496 8.34455 14.6094 8.91516 16.1803C8.94953 16.2869 9.01485 16.4897 9.13688 16.5H9.16437C9.22969 16.5 9.50812 16.1322 9.50812 16.1322C9.50812 16.1322 14.4855 10.096 14.9891 9.45322C15.0543 9.37404 15.1118 9.28887 15.161 9.19885C15.1735 9.12841 15.1676 9.05593 15.1438 8.98846C15.12 8.92099 15.0792 8.86083 15.0252 8.81385ZM10.7851 9.51681L12.9095 7.75512L14.1555 8.90323L10.7851 9.51681ZM9.96014 9.40166L6.30271 6.4042L12.2203 7.49559L9.96014 9.40166ZM10.2901 10.1871L14.0335 9.58384L9.7539 14.74L10.2901 10.1871ZM5.806 6.70326L9.65421 9.96884L9.09734 14.7435L5.806 6.70326Z" fill="white"/>
</svg>
